<?xml version="1.0" encoding="UTF-8" standalone="no"?>
<!-- Created with Inkscape (http://www.inkscape.org/) -->

<svg
   width="59mm"
   height="41mm"
   viewBox="0 0 59 41"
   version="1.1"
   id="svg1"
   inkscape:version="1.4.2 (ebf0e94, 2025-05-08)"
   sodipodi:docname="expanded_white.svg"
   xmlns:inkscape="http://www.inkscape.org/namespaces/inkscape"
   xmlns:sodipodi="http://sodipodi.sourceforge.net/DTD/sodipodi-0.dtd"
   xmlns="http://www.w3.org/2000/svg"
   xmlns:svg="http://www.w3.org/2000/svg">
  <sodipodi:namedview
     id="namedview1"
     pagecolor="#505050"
     bordercolor="#ffffff"
     borderopacity="1"
     inkscape:showpageshadow="0"
     inkscape:pageopacity="0"
     inkscape:pagecheckerboard="1"
     inkscape:deskcolor="#505050"
     inkscape:document-units="mm"
     inkscape:zoom="2.0334082"
     inkscape:cx="217.12316"
     inkscape:cy="112.8647"
     inkscape:window-width="1920"
     inkscape:window-height="1019"
     inkscape:window-x="0"
     inkscape:window-y="25"
     inkscape:window-maximized="1"
     inkscape:current-layer="layer1" />
  <defs
     id="defs1">
    <inkscape:path-effect
       effect="fillet_chamfer"
       id="path-effect23"
       is_visible="true"
       lpeversion="1"
       nodesatellites_param="F,0,1,1,0,0.62722982,0,1 @ F,0,1,1,0,0.62722982,0,1 @ F,0,1,1,0,0.62722982,0,1 @ F,0,1,1,0,0.62722982,0,1 @ F,0,1,1,0,0.62722982,0,1 @ F,0,1,1,0,0.62722982,0,1 @ F,0,0,1,0,0.62722982,0,1 @ F,0,1,1,0,0.62722982,0,1 @ F,0,1,1,0,0.62722982,0,1 @ F,0,1,1,0,0.62722982,0,1 @ F,0,1,1,0,0.62722982,0,1 @ F,0,1,1,0,0.62722982,0,1"
       radius="0"
       unit="px"
       method="auto"
       mode="F"
       chamfer_steps="1"
       flexible="false"
       use_knot_distance="true"
       apply_no_radius="true"
       apply_with_radius="true"
       only_selected="false"
       hide_knots="false" />
    <inkscape:path-effect
       effect="fillet_chamfer"
       id="path-effect22"
       is_visible="true"
       lpeversion="1"
       nodesatellites_param="F,0,1,1,0,0.5115118,0,1 @ F,0,1,1,0,0.5115118,0,1 @ F,0,1,1,0,0.5115118,0,1 @ F,0,1,1,0,0.5115118,0,1 @ F,0,1,1,0,0.5115118,0,1 @ F,0,1,1,0,0.5115118,0,1 @ F,0,1,1,0,0.5115118,0,1 @ F,0,1,1,0,0.5115118,0,1 @ F,0,1,1,0,0.5115118,0,1 @ F,0,0,1,0,0.5115118,0,1 @ F,0,1,1,0,0.5115118,0,1 @ F,0,1,1,0,0.5115118,0,1 @ F,0,1,1,0,0.5115118,0,1 @ F,0,1,1,0,0.5115118,0,1 @ F,0,1,1,0,0.5115118,0,1 @ F,0,1,1,0,0.5115118,0,1 @ F,0,1,1,0,0.5115118,0,1 @ F,0,1,1,0,0.5115118,0,1 @ F,0,1,1,0,0.5115118,0,1 @ F,0,1,1,0,0.5115118,0,1 @ F,0,1,1,0,0.5115118,0,1"
       radius="0"
       unit="px"
       method="auto"
       mode="F"
       chamfer_steps="1"
       flexible="false"
       use_knot_distance="true"
       apply_no_radius="true"
       apply_with_radius="true"
       only_selected="false"
       hide_knots="false" />
    <inkscape:path-effect
       effect="fillet_chamfer"
       id="path-effect21"
       is_visible="true"
       lpeversion="1"
       nodesatellites_param="F,0,1,1,0,0.43528522,0,1 @ F,0,1,1,0,0.43528522,0,1 @ F,0,0,1,0,0.43528522,0,1 @ F,0,1,1,0,0.43528522,0,1"
       radius="0"
       unit="px"
       method="auto"
       mode="F"
       chamfer_steps="1"
       flexible="false"
       use_knot_distance="true"
       apply_no_radius="true"
       apply_with_radius="true"
       only_selected="false"
       hide_knots="false" />
    <inkscape:path-effect
       effect="fillet_chamfer"
       id="path-effect20"
       is_visible="true"
       lpeversion="1"
       nodesatellites_param="F,0,1,1,0,0.41050786,0,1 @ F,0,1,1,0,0.41050786,0,1 @ F,0,1,1,0,0.41050786,0,1 @ F,0,1,1,0,0.41050786,0,1 @ F,0,1,1,0,0.41050786,0,1 @ F,0,1,1,0,0.41050786,0,1 @ F,0,1,1,0,0.41050786,0,1 @ F,0,1,1,0,0.41050786,0,1 @ F,0,1,1,0,0.41050786,0,1 @ F,0,1,1,0,0.41050786,0,1 @ F,0,1,1,0,0.41050786,0,1 @ F,0,1,1,0,0.41050786,0,1 @ F,0,1,1,0,0.41050786,0,1 @ F,0,1,1,0,0.41050786,0,1 @ F,0,1,1,0,0.41050786,0,1 @ F,0,0,1,0,0.41050786,0,1 @ F,0,1,1,0,0.41050786,0,1 | F,0,1,1,0,0.41050786,0,1 @ F,0,1,1,0,0.41050786,0,1 @ F,0,1,1,0,0.41050786,0,1 @ F,0,1,1,0,0.41050786,0,1 @ F,0,1,1,0,0.41050786,0,1 @ F,0,1,1,0,0.41050786,0,1 @ F,0,1,1,0,0.41050786,0,1 @ F,0,1,1,0,0.41050786,0,1 @ F,0,1,1,0,0.41050786,0,1 @ F,0,1,1,0,0.41050786,0,1"
       radius="0"
       unit="px"
       method="auto"
       mode="F"
       chamfer_steps="1"
       flexible="false"
       use_knot_distance="true"
       apply_no_radius="true"
       apply_with_radius="true"
       only_selected="false"
       hide_knots="false" />
    <inkscape:path-effect
       effect="fillet_chamfer"
       id="path-effect19"
       is_visible="true"
       lpeversion="1"
       nodesatellites_param="F,0,1,1,0,0.87601715,0,1 @ F,0,1,1,0,0.87601715,0,1 @ F,0,1,1,0,0.87601715,0,1 @ F,0,1,1,0,0.87601715,0,1 @ F,0,1,1,0,0.87601715,0,1 @ F,0,1,1,0,0.87601715,0,1 @ F,0,1,1,0,0.87601715,0,1 @ F,0,1,1,0,0.87601715,0,1 @ F,0,0,1,0,0.87601715,0,1 @ F,0,1,1,0,0.87601715,0,1 @ F,0,1,1,0,0.87601715,0,1 @ F,0,1,1,0,0.87601715,0,1 @ F,0,1,1,0,0.87601715,0,1 @ F,0,1,1,0,0.87601715,0,1 @ F,0,1,1,0,0.87601715,0,1 @ F,0,1,1,0,0.87601715,0,1 @ F,0,1,1,0,0.87601715,0,1 | F,0,1,1,0,0.87601715,0,1 @ F,0,1,1,0,0.87601715,0,1 @ F,0,1,1,0,0.87601715,0,1 @ F,0,1,1,0,0.87601715,0,1 @ F,0,1,1,0,0.87601715,0,1"
       radius="0"
       unit="px"
       method="auto"
       mode="F"
       chamfer_steps="1"
       flexible="false"
       use_knot_distance="true"
       apply_no_radius="true"
       apply_with_radius="true"
       only_selected="false"
       hide_knots="false" />
    <inkscape:path-effect
       effect="fillet_chamfer"
       id="path-effect18"
       is_visible="true"
       lpeversion="1"
       nodesatellites_param="F,0,1,1,0,0.57924921,0,1 @ F,0,1,1,0,0.57924921,0,1 @ F,0,1,1,0,0.57924921,0,1 @ F,0,1,1,0,0.57924921,0,1 @ F,0,1,1,0,0.57924921,0,1 @ F,0,1,1,0,0.57924921,0,1 @ F,0,1,1,0,0.57924921,0,1 @ F,0,0,1,0,0.57924921,0,1 @ F,0,1,1,0,0.57924921,0,1 @ F,0,1,1,0,0.57924921,0,1 @ F,0,1,1,0,0.57924921,0,1 @ F,0,1,1,0,0.57924921,0,1 @ F,0,1,1,0,0.57924921,0,1 @ F,0,1,1,0,0.57924921,0,1 @ F,0,1,1,0,0.57924921,0,1 @ F,0,1,1,0,0.57924921,0,1"
       radius="0"
       unit="px"
       method="auto"
       mode="F"
       chamfer_steps="1"
       flexible="false"
       use_knot_distance="true"
       apply_no_radius="true"
       apply_with_radius="true"
       only_selected="false"
       hide_knots="false" />
    <inkscape:path-effect
       effect="fillet_chamfer"
       id="path-effect17"
       is_visible="true"
       lpeversion="1"
       nodesatellites_param="F,0,1,1,0,0.4841113,0,1 @ F,0,1,1,0,0.4841113,0,1 @ F,0,1,1,0,0.4841113,0,1 @ F,0,1,1,0,0.4841113,0,1 @ F,0,1,1,0,0.4841113,0,1 @ F,0,1,1,0,0.4841113,0,1 @ F,0,1,1,0,0.4841113,0,1 @ F,0,1,1,0,0.4841113,0,1 @ F,0,1,1,0,0.4841113,0,1 @ F,0,0,1,0,0.4841113,0,1 @ F,0,1,1,0,0.4841113,0,1 @ F,0,1,1,0,0.4841113,0,1 @ F,0,1,1,0,0.4841113,0,1 @ F,0,1,1,0,0.4841113,0,1 @ F,0,1,1,0,0.4841113,0,1 @ F,0,1,1,0,0.4841113,0,1 @ F,0,1,1,0,0.4841113,0,1 @ F,0,1,1,0,0.4841113,0,1 @ F,0,1,1,0,0.4841113,0,1 @ F,0,1,1,0,0.4841113,0,1"
       radius="0"
       unit="px"
       method="auto"
       mode="F"
       chamfer_steps="1"
       flexible="false"
       use_knot_distance="true"
       apply_no_radius="true"
       apply_with_radius="true"
       only_selected="false"
       hide_knots="false" />
    <inkscape:path-effect
       effect="fillet_chamfer"
       id="path-effect5"
       is_visible="true"
       lpeversion="1"
       nodesatellites_param="F,0,0,1,0,1.4432733,0,1 @ F,0,0,1,0,0,0,1 @ F,0,0,1,0,0,0,1 @ F,0,0,1,0,0,0,1 @ F,0,0,1,0,0,0,1 @ F,0,0,1,0,0,0,1 @ F,0,0,1,0,0,0,1 @ F,0,0,1,0,0,0,1 @ F,0,0,1,0,0,0,1 @ F,0,1,1,0,1.4283192,0,1 @ F,0,0,1,0,0,0,1 @ F,0,0,1,0,0,0,1 @ F,0,0,1,0,0,0,1 @ F,0,0,1,0,0,0,1 @ F,0,0,1,0,0,0,1 @ F,0,0,1,0,0,0,1 @ F,0,0,1,0,0,0,1 @ F,0,0,1,0,0,0,1 @ F,0,0,1,0,0,0,1 @ F,0,0,1,0,0,0,1 @ F,0,0,1,0,0,0,1 @ F,0,0,1,0,0,0,1 @ F,0,0,1,0,0,0,1 @ F,0,0,1,0,0,0,1 @ F,0,0,1,0,0,0,1 @ F,0,0,1,0,0,0,1 @ F,0,0,1,0,1.4283192,0,1 @ F,0,0,1,0,0,0,1 @ F,0,0,1,0,0,0,1 @ F,0,0,1,0,0,0,1 @ F,0,0,1,0,0,0,1 @ F,0,0,1,0,0,0,1 @ F,0,0,1,0,0,0,1 @ F,0,0,1,0,0,0,1 @ F,0,0,1,0,0,0,1 @ F,0,0,1,0,1.4432733,0,1 @ F,0,0,1,0,0,0,1 @ F,0,0,1,0,2.8315604,0,1 @ F,0,0,1,0,2.1542003,0,1 @ F,0,0,1,0,0,0,1 @ F,0,0,1,0,0,0,1"
       radius="0"
       unit="px"
       method="auto"
       mode="F"
       chamfer_steps="1"
       flexible="false"
       use_knot_distance="true"
       apply_no_radius="true"
       apply_with_radius="true"
       only_selected="false"
       hide_knots="false" />
    <inkscape:path-effect
       effect="fillet_chamfer"
       id="path-effect4"
       is_visible="true"
       lpeversion="1"
       nodesatellites_param="F,0,0,1,0,0,0,1 @ F,0,0,1,0,0,0,1 @ F,0,0,1,0,0,0,1 @ F,0,0,1,0,3.4834047,0,1 @ F,0,0,1,0,3.829337,0,1 @ F,0,0,1,0,1.5139988,0,1 @ F,0,0,1,0,0,0,1 @ F,0,0,1,0,1.6248709,0,1 @ F,0,0,1,0,1.3290244,0,1 @ F,0,0,1,0,1.2013982,0,1 @ F,0,0,1,0,2.3883091,0,1 @ F,0,0,1,0,0,0,1 @ F,0,0,1,0,6.1032213,0,1"
       radius="0"
       unit="px"
       method="auto"
       mode="F"
       chamfer_steps="1"
       flexible="false"
       use_knot_distance="true"
       apply_no_radius="true"
       apply_with_radius="true"
       only_selected="false"
       hide_knots="false" />
    <inkscape:path-effect
       effect="fillet_chamfer"
       id="path-effect2"
       is_visible="true"
       lpeversion="1"
       nodesatellites_param="F,0,0,1,0,0,0,1 @ F,0,0,1,0,0,0,1 @ F,0,0,1,0,0,0,1 @ F,0,0,1,0,3.4834047,0,1 @ F,0,0,1,0,3.829337,0,1 @ F,0,0,1,0,1.5139988,0,1 @ F,0,0,1,0,0,0,1 @ F,0,0,1,0,1.6248709,0,1 @ F,0,0,1,0,1.3290244,0,1 @ F,0,0,1,0,1.2013982,0,1 @ F,0,0,1,0,2.3883091,0,1 @ F,0,0,1,0,0,0,1 @ F,0,0,1,0,6.1032213,0,1"
       radius="0"
       unit="px"
       method="auto"
       mode="F"
       chamfer_steps="1"
       flexible="false"
       use_knot_distance="true"
       apply_no_radius="true"
       apply_with_radius="true"
       only_selected="false"
       hide_knots="false" />
    <inkscape:path-effect
       effect="fillet_chamfer"
       id="path-effect1"
       is_visible="true"
       lpeversion="1"
       nodesatellites_param="F,0,0,1,0,0,0,1 @ F,0,0,1,0,0,0,1 @ F,0,0,1,0,6.1539861,0,1 @ F,0,0,1,0,0,0,1"
       radius="0"
       unit="px"
       method="auto"
       mode="F"
       chamfer_steps="1"
       flexible="false"
       use_knot_distance="true"
       apply_no_radius="true"
       apply_with_radius="true"
       only_selected="false"
       hide_knots="false" />
  </defs>
  <g
     inkscape:label="Layer 1"
     inkscape:groupmode="layer"
     id="layer1">
    <path
       d="m 17.497555,25.200329 0.493595,8.007463 c 0.09758,1.58316 0.392348,3.147955 0.877466,4.658113 l 3.175,5.650819 c 0.20292,0.631723 0.797866,1.467142 1.328084,1.866036 0.979471,0.736875 2.49477,1.878748 3.504179,2.648934 0.5832,0.444985 1.57094,1.098723 2.218469,1.444356 l 4.013709,2.142505 c 0.941957,0.502737 1.749665,1.223969 2.355411,2.10323 l 2.66702,3.871519 a 0.40073114,0.40073114 129.76567 0 1 -0.493596,0.593154 l -8.931151,-3.9939 c -0.902517,-0.403485 -1.901545,-0.540645 -2.87941,-0.395325 l -6.89467,1.024227 c -1.187972,0.176776 -1.453601,1.771611 -0.387057,2.323889 l 4.179074,2.164726 c 1.308403,0.677628 2.502839,1.546585 3.545704,2.574454 0.09429,0.09293 0.187339,0.187166 0.279123,0.282673 0.471025,0.490139 0.908686,1.01386 1.309226,1.567926 l 2.014864,2.78691 c 3.737536,5.057122 11.550628,13.871189 13.12478,13.644128 1.574153,0.227061 9.387246,-8.587006 13.124781,-13.644128 l 2.014864,-2.78691 c 1.341828,-1.856147 3.100258,-3.371742 5.134053,-4.425053 l 4.179073,-2.164726 c 1.066611,-0.552454 0.800596,-2.147482 -0.387573,-2.323889 L 60.16842,53.797233 c -0.503794,-0.07487 -1.013206,-0.07477 -1.512143,-0.0019 -0.778087,0.113646 -1.951036,0.658274 -2.671151,0.980301 l -8.931151,3.9939 3.477308,-5.047754 c 0.605746,-0.879261 1.413454,-1.600493 2.355411,-2.10323 l 4.013709,-2.142505 c 0.647529,-0.345633 1.635269,-0.99937 2.218469,-1.444356 1.009409,-0.770186 2.524708,-1.912058 3.504179,-2.648934 0.530218,-0.398893 1.125164,-1.234313 1.328084,-1.866036 l 3.175,-5.650819 c 0.337841,-1.051688 0.583363,-2.129875 0.734261,-3.222309 0.10904,-0.789412 0.182961,-2.080755 0.232003,-2.876343 l 0.493595,-8.007463 -5.868564,5.360656 c -1.154629,1.054699 -3.018393,2.791957 -4.342622,3.619764 -1.884364,1.177961 -4.001736,1.941423 -6.209537,2.235529 -1.178378,0.156975 -3.09143,0.344317 -4.269556,0.508321 -3.845605,0.535335 -7.661541,0.31926 -11.918066,-0.371992 -3.924072,0.02214 -7.712362,-1.43535 -10.609688,-4.081921 l -6.893585,-6.296964 a 0.58403493,0.58403493 154.44143 0 0 -0.976821,0.467146 z"
       style="opacity:1;fill:#ffffff;fill-opacity:1"
       id="path4"
       sodipodi:nodetypes="ccccsscccccccccssccccccccccccccssccccsccsc"
       inkscape:path-effect="#path-effect5"
       inkscape:original-d="m 17.408757,23.75979 0.582393,9.448002 c 0.09758,1.58316 0.392348,3.147955 0.877466,4.658113 l 3.175,5.650819 c 0.20292,0.631723 0.797866,1.467142 1.328084,1.866036 0.979471,0.736875 2.49477,1.878748 3.504179,2.648934 0.5832,0.444985 1.57094,1.098723 2.218469,1.444356 l 4.013709,2.142505 c 0.941957,0.502737 1.749665,1.223969 2.355411,2.10323 l 3.477308,5.047754 -10.235035,-4.576981 c -0.902517,-0.403485 -1.901545,-0.540645 -2.87941,-0.395325 l -6.89467,1.024227 c -1.187972,0.176776 -1.453601,1.771611 -0.387057,2.323889 l 4.179074,2.164726 c 1.308403,0.677628 2.502839,1.546585 3.545704,2.574454 0.09429,0.09293 0.187339,0.187166 0.279123,0.282673 0.471025,0.490139 0.908686,1.01386 1.309226,1.567926 l 2.014864,2.78691 c 3.737536,5.057122 11.550628,13.871189 13.12478,13.644128 1.574153,0.227061 9.387246,-8.587006 13.124781,-13.644128 l 2.014864,-2.78691 c 1.341828,-1.856147 3.100258,-3.371742 5.134053,-4.425053 l 4.179073,-2.164726 c 1.066611,-0.552454 0.800596,-2.147482 -0.387573,-2.323889 L 60.16842,53.797233 c -0.977865,-0.14532 -1.976893,-0.0082 -2.87941,0.395325 l -10.235035,4.576981 3.477308,-5.047754 c 0.605746,-0.879261 1.413454,-1.600493 2.355411,-2.10323 l 4.013709,-2.142505 c 0.647529,-0.345633 1.635269,-0.99937 2.218469,-1.444356 1.009409,-0.770186 2.524708,-1.912058 3.504179,-2.648934 0.530218,-0.398893 1.125164,-1.234313 1.328084,-1.866036 l 3.175,-5.650819 c 0.485118,-1.510158 0.779884,-3.074953 0.877466,-4.658113 l 0.582393,-9.448002 -7.959204,7.270357 c -2.897326,2.646571 -6.685616,4.104061 -10.609688,4.081921 -4.582357,0.970593 -9.002413,0.818006 -14.039453,0 -3.924072,0.02214 -7.712362,-1.43535 -10.609688,-4.081921 z"
       transform="matrix(0.4893369,0,0,0.44317851,8.6559348,-10.529828)" />
    <g
       id="g17"
       transform="matrix(0.61288028,0,0,0.60541203,-18.627855,26.149011)"
       style="fill:#ffffff;fill-opacity:1">
      <g
         id="g23"
         transform="translate(-1.0196424)"
         style="fill:#ffffff;fill-opacity:1">
        <path
           d="m 115.64254,8.5002563 h 2.85485 a 0.98141373,0.98141373 32.58299 0 1 0.89066,0.5692288 l 1.43107,3.0922919 a 0.37778938,0.37778938 6.2271295 0 0 0.64342,0.07021 l 2.46162,-3.2327053 a 1.2659942,1.2659942 153.64414 0 1 1.00722,-0.4990224 h 2.85485 a 0.298382,0.298382 64.558913 0 1 0.2315,0.4866363 l -4.48789,5.5188384 a 0.95485012,0.95485012 95.817385 0 0 -0.10627,1.043081 l 2.9501,5.671192 a 0.38073931,0.38073931 121.25847 0 1 -0.33777,0.556445 h -2.85485 a 0.98649246,0.98649246 32.448942 0 1 -0.89332,-0.56799 l -1.598,-3.41103 a 0.37978108,0.37978108 6.0923488 0 0 -0.64607,-0.06896 l -2.70228,3.548946 a 1.2659535,1.2659535 153.64341 0 1 -1.00721,0.499032 h -2.85485 a 0.29922508,0.29922508 64.496145 0 1 -0.23257,-0.487502 l 4.70281,-5.809078 a 0.96328296,0.96328296 95.922623 0 0 0.10847,-1.045635 L 115.3015,9.0583895 a 0.38326069,0.38326069 121.42648 0 1 0.34104,-0.5581332 z"
           style="font-weight:bold;font-size:24.3155px;line-height:0.5;font-family:Sans;-inkscape-font-specification:'Sans Bold';letter-spacing:-0.027355px;opacity:1;fill:#ffffff;stroke-width:1.72315;fill-opacity:1"
           id="path17"
           inkscape:path-effect="#path-effect23"
           inkscape:original-d="m 115.01531,8.5002563 h 4.10931 l 1.95793,4.2307497 3.2216,-4.2307497 h 4.10931 l -5.27935,6.4921107 3.52902,6.784082 h -4.10931 l -2.13018,-4.54701 -3.46224,4.54701 h -4.10931 l 5.49213,-6.784082 z"
           sodipodi:nodetypes="ccccccccccccc" />
        <path
           d="m 108.26431,8.2568604 c -2.01009,0 -3.67706,0.5917311 -5.00133,1.7750856 -1.32426,1.183354 -2.14795,2.877255 -2.47088,5.08186 -0.21606,1.475141 -0.12438,2.731301 0.27481,3.768762 0.40155,1.021251 1.04132,1.799801 1.91937,2.334742 0.89427,0.534941 1.95731,0.802018 3.18929,0.802018 1.99387,0 3.65395,-0.599809 4.9806,-1.799374 1.34285,-1.199564 2.17579,-2.901542 2.49871,-5.106148 0.21607,-1.47514 0.12203,-2.715146 -0.2819,-3.720186 -0.40156,-1.021251 -1.0414,-1.7992836 -1.91946,-2.3342247 -0.87805,-0.534941 -1.94102,-0.8025349 -3.18921,-0.8025349 z m -0.47604,2.9181676 c 0.97262,0 1.6207,0.332215 1.94482,0.996839 0.3427,0.648413 0.41821,1.628902 0.22588,2.941939 -0.19232,1.313037 -0.55751,2.310198 -1.09492,2.991032 -0.51882,0.664624 -1.25614,0.996838 -2.21255,0.996838 -0.97262,0 -1.6293,-0.332214 -1.96963,-0.996838 -0.32173,-0.680834 -0.38621,-1.677995 -0.19389,-2.991032 0.19233,-1.313037 0.54649,-2.293526 1.06293,-2.941939 0.53503,-0.664624 1.28095,-0.996839 2.23736,-0.996839 z"
           style="font-weight:bold;font-size:24.3155px;line-height:0.5;font-family:Sans;-inkscape-font-specification:'Sans Bold';letter-spacing:-0.027355px;opacity:1;fill:#ffffff;stroke-width:1.72315;fill-opacity:1"
           id="path16" />
        <path
           d="m 98.725372,3.1878581 c -0.557869,0.028628 -1.077884,0.1050568 -1.560158,0.2292527 -0.273501,0.070432 -0.708051,0.220065 -0.960167,0.3470915 -0.380136,0.1915284 -0.720593,0.4415066 -1.021292,0.7499226 -0.197095,0.2021544 -0.473825,0.5700345 -0.609836,0.8173677 -0.25302,0.460113 -0.446527,1.0242086 -0.58057,1.6922249 -0.05557,0.2769396 -0.120169,0.7305822 -0.161111,1.0100997 A 0.90186036,0.90186036 128.20077 0 1 93.298383,8.712207 l -1.205066,0.5486491 a 0.93841684,0.93841684 126.927 0 0 -0.539665,0.7180621 l -0.108183,0.7385748 a 0.44204647,0.44204647 49.166554 0 0 0.43738,0.506111 h 0.970653 a 0.44204617,0.44204617 49.166573 0 1 0.437379,0.506111 l -1.397463,9.540623 a 0.44204617,0.44204617 49.166573 0 0 0.437379,0.506111 l 2.60001,0 a 0.59189365,0.59189365 139.16657 0 0 0.585645,-0.506111 l 1.397463,-9.540623 a 0.59189365,0.59189365 139.16657 0 1 0.585645,-0.506111 h 2.113718 a 0.59189309,0.59189309 139.16655 0 0 0.585642,-0.506111 l 0.25064,-1.7111253 A 0.44204659,0.44204659 49.166546 0 0 100.01218,8.5002563 H 97.898457 A 0.44204033,0.44204033 49.166947 0 1 97.461084,7.994146 c 0.02595,-0.1771284 0.07348,-0.5511102 0.167886,-0.8168888 0.03067,-0.086338 0.06586,-0.1690699 0.105573,-0.2481928 0.12637,-0.2517799 0.44154,-0.6026101 0.694525,-0.7246378 0.08461,-0.040811 0.174632,-0.073831 0.270079,-0.099062 0.272362,-0.071997 0.736051,-0.065043 1.017238,-0.038908 0.02937,0.00273 0.05841,0.00571 0.08711,0.00894 0.280487,0.031543 0.727807,0.1350791 1.001387,0.2054209 0.20517,0.052754 0.47086,-0.1014273 0.5962,-0.3545991 l 0.85831,-1.733668 c 0.12534,-0.2531718 0.0163,-0.5499967 -0.25366,-0.632731 -0.11614,-0.035594 -0.24065,-0.070018 -0.37355,-0.103268 -0.274,-0.068556 -0.72346,-0.1589994 -1.0034,-0.1965131 -0.27626,-0.037021 -0.56987,-0.061934 -0.880757,-0.074778 -0.282231,-0.01166 -0.740553,-0.011875 -1.022651,0.0026 z"
           style="font-weight:bold;font-size:24.3155px;line-height:0.5;font-family:Sans;-inkscape-font-specification:'Sans Bold';letter-spacing:-0.027355px;opacity:1;fill:#ffffff;stroke-width:1.72315;fill-opacity:1"
           id="path14"
           inkscape:path-effect="#path-effect22"
           inkscape:original-d="m 99.236666,3.175 c -0.956404,0 -1.809981,0.1297582 -2.561238,0.3891235 -0.735031,0.2593654 -1.343597,0.7051831 -1.825247,1.3373861 -0.463066,0.6159927 -0.777603,1.4914729 -0.943811,2.6261963 l -0.142454,0.9725504 -2.136132,0.9725505 -0.256447,1.7507972 h 1.993677 l -1.545729,10.552845 h 3.623034 l 1.545729,-10.552845 h 3.136742 l 0.3989,-2.7233477 h -3.136745 l 0.12112,-0.8268229 c 0.0689,-0.4700996 0.23947,-0.8593742 0.511537,-1.1673706 0.28826,-0.3079963 0.683427,-0.4619873 1.185944,-0.4619873 0.421457,0 0.788577,0.040905 1.100914,0.1219564 0.31471,0.064841 0.60396,0.1375396 0.86767,0.2185913 L 102.48634,3.734139 C 102.15107,3.588246 101.70003,3.4584878 101.13308,3.3450155 100.58234,3.2315431 99.949923,3.175 99.236666,3.175 Z"
           sodipodi:nodetypes="sccsccccccccccccsccccs" />
        <path
           d="m 88.377683,3.2964396 c -0.551151,0 -1.040209,0.1297582 -1.467247,0.3891236 -0.408454,0.243155 -0.66294,0.7051279 -0.762665,1.3859619 -0.09735,0.6646236 0.0218,1.1265965 0.356647,1.3859619 0.351058,0.2593653 0.802103,0.3891235 1.353254,0.3891235 0.534941,0 1.01592,-0.1297582 1.442958,-0.3891235 0.427039,-0.2593654 0.689086,-0.7213383 0.786436,-1.3859619 0.09973,-0.680834 -0.02699,-1.1428069 -0.380418,-1.3859619 C 89.35559,3.4261978 88.912624,3.2964396 88.377683,3.2964396 Z"
           style="font-weight:bold;font-size:24.3155px;line-height:0.5;font-family:Sans;-inkscape-font-specification:'Sans Bold';letter-spacing:-0.027355px;opacity:1;fill:#ffffff;stroke-width:1.72315;fill-opacity:1"
           id="path13" />
        <path
           d="M 85.728708,8.9309458 83.910247,21.345759 a 0.37617152,0.37617152 49.166572 0 0 0.3722,0.43069 h 2.752464 a 0.50368837,0.50368837 139.16657 0 0 0.49837,-0.43069 L 89.351742,8.9309458 a 0.37617152,0.37617152 49.166572 0 0 -0.3722,-0.4306895 h -2.752464 a 0.50368837,0.50368837 139.16657 0 0 -0.49837,0.4306895 z"
           style="font-weight:bold;font-size:24.3155px;line-height:0.5;font-family:Sans;-inkscape-font-specification:'Sans Bold';letter-spacing:-0.027355px;opacity:1;fill:#ffffff;stroke-width:1.72315;fill-opacity:1"
           id="path12"
           inkscape:path-effect="#path-effect21"
           inkscape:original-d="M 85.791793,8.5002563 83.847162,21.776449 h 3.623034 L 89.414827,8.5002563 Z"
           sodipodi:nodetypes="ccccc" />
        <path
           d="M 80.163648,3.7026134 79.659304,7.14582 c -0.03286,0.2243236 -0.08687,0.5879755 -0.112339,0.8132475 -0.02712,0.2398973 -0.04689,0.4780124 -0.05939,0.7143834 -0.01197,0.2263892 -0.01724,0.5940085 -0.01795,0.8207237 -3.3e-4,0.1065241 -1.1e-4,0.205655 6.65e-4,0.2974002 0.0019,0.2266972 -0.04534,0.4103862 -0.112407,0.4103862 C 78.958625,9.5553871 78.718524,9.2927916 78.432104,9.0591718 78.256484,8.9159268 77.948826,8.7116867 77.743587,8.6158651 77.325229,8.4205434 76.822449,8.3049492 76.235206,8.2690169 c -0.226252,-0.013844 -0.594324,-0.013838 -0.820419,0.00229 -1.223197,0.087271 -2.306635,0.5698507 -3.250361,1.4476478 -0.166002,0.1544044 -0.41969,0.421067 -0.564436,0.595508 -0.894234,1.077688 -1.503585,2.558466 -1.828143,4.442538 -0.03849,0.223412 -0.09179,0.587173 -0.118952,0.812251 -0.22211,1.840711 -0.06062,3.296947 0.484551,4.36825 0.102772,0.201955 0.304963,0.51018 0.448036,0.685948 0.677729,0.832606 1.583149,1.292581 2.71617,1.380351 0.226081,0.01751 0.594282,0.01708 0.820561,0.0035 0.614792,-0.03676 1.160963,-0.158167 1.638563,-0.364286 0.208053,-0.08979 0.52634,-0.275401 0.71394,-0.402644 0.38528,-0.261323 0.727753,-0.554244 1.027459,-0.878789 0.153778,-0.166521 0.33247,-0.311694 0.41324,-0.311694 l 0.348013,1.329384 a 0.53180609,0.53180609 37.665005 0 0 0.51447,0.397126 h 1.950908 a 0.47501743,0.47501743 139.16658 0 0 0.470002,-0.406174 L 83.786683,3.7026134 A 0.35475899,0.35475899 49.166576 0 0 83.435669,3.2964396 H 80.63365 A 0.4750173,0.4750173 139.16657 0 0 80.163648,3.7026134 Z M 76.922697,11.21773 c 0.651592,0.06172 1.125314,0.278569 1.421092,0.650637 0.140521,0.176765 0.285165,0.520085 0.34568,0.738352 0.156867,0.565801 0.186192,1.29002 0.08807,2.172851 -0.02504,0.225319 -0.07815,0.581315 -0.109626,0.796223 -0.233207,1.197767 -0.470583,1.843707 -0.784785,2.341729 -0.12089,0.191616 -0.355962,0.477714 -0.531116,0.621151 -0.395745,0.324082 -0.909603,0.514047 -1.541778,0.569869 -0.225745,0.01993 -0.595074,0.02195 -0.819046,-0.01184 -0.473097,-0.07136 -0.851981,-0.273241 -1.136705,-0.605689 -0.14728,-0.171966 -0.321935,-0.499815 -0.39427,-0.714404 -0.187584,-0.556488 -0.234363,-1.276044 -0.140175,-2.158459 0.02406,-0.225419 0.07743,-0.589275 0.118862,-0.81216 0.16954,-0.912016 0.438984,-1.654856 0.808151,-2.228737 0.122589,-0.190569 0.352866,-0.478894 0.514091,-0.638101 0.394903,-0.389959 0.842484,-0.625724 1.342791,-0.707385 0.223534,-0.03648 0.408815,-0.03246 0.408817,-0.03246 z"
           style="font-weight:bold;font-size:24.3155px;line-height:0.5;font-family:Sans;-inkscape-font-specification:'Sans Bold';letter-spacing:-0.027355px;opacity:1;fill:#ffffff;stroke-width:1.72315;fill-opacity:1"
           id="path10"
           inkscape:path-effect="#path-effect20"
           inkscape:original-d="M 80.223142,3.2964396 79.59981,7.5519938 c -0.07598,0.5187307 -0.117919,1.0291691 -0.126685,1.5316895 -0.0064,0.48631 -0.0044,0.8589126 0.0062,1.1182777 h -0.12144 C 79.082002,9.6508099 78.662948,9.188837 78.101566,8.8159993 77.540185,8.4431617 76.781364,8.2568604 75.824954,8.2568604 c -1.523771,0 -2.84119,0.5836535 -3.952346,1.7507976 -1.111157,1.167144 -1.832871,2.885277 -2.165288,5.154724 -0.330043,2.253236 -0.118627,3.963809 0.634403,5.130953 0.771615,1.150934 1.895078,1.725993 3.370218,1.725993 0.95641,0 1.761731,-0.186302 2.416125,-0.559139 0.656768,-0.389048 1.203747,-0.859099 1.641104,-1.41025 h 0.146245 l 0.451975,1.72651 h 2.771924 L 83.846177,3.2964396 Z m -3.710389,7.9028764 c 1.069882,0 1.749605,0.340293 2.038927,1.021127 0.305533,0.680834 0.363189,1.6694 0.173236,2.966227 l -0.057,0.389123 c -0.189541,1.183355 -0.531195,2.07499 -1.024306,2.674773 -0.490737,0.583572 -1.2383,0.875398 -2.24334,0.875398 -0.826727,0 -1.419446,-0.324137 -1.778359,-0.97255 -0.356539,-0.664624 -0.440052,-1.645629 -0.250099,-2.942456 0.189953,-1.296827 0.561959,-2.285393 1.115574,-2.966227 0.555988,-0.697045 1.231057,-1.045415 2.025364,-1.045415 z"
           sodipodi:nodetypes="cscccsssscscccccccscsccscscss" />
        <path
           d="M 62.303682,8.3012689 C 61.701258,8.3638722 61.128438,8.492659 60.585201,8.6875904 60.130124,8.850887 59.427538,9.2088472 59.031452,9.4860006 58.56263,9.8140498 58.13549,10.207769 57.75005,10.667175 c -0.310801,0.370443 -0.742228,1.029388 -0.956077,1.463041 -0.325079,0.659209 -0.577365,1.406823 -0.756816,2.242937 -0.101507,0.472951 -0.21655,1.250221 -0.248193,1.732868 -0.05074,0.773995 -0.0037,1.471174 0.141012,2.091425 0.109806,0.470502 0.421064,1.198467 0.688548,1.600851 0.258027,0.388157 0.567283,0.725998 0.927704,1.013518 0.377669,0.301281 1.081251,0.662854 1.539172,0.817639 0.530686,0.179382 1.109605,0.296825 1.736842,0.352408 0.481767,0.04269 1.26747,0.04078 1.750587,0.01591 0.315556,-0.01625 0.614981,-0.04168 0.898267,-0.07633 0.480031,-0.05871 1.250398,-0.215732 1.714443,-0.35198 0.171334,-0.05031 0.341157,-0.105526 0.509464,-0.165656 0.455448,-0.162715 0.866876,-0.720801 0.936994,-1.199504 l 0.155655,-1.062675 c 0.07012,-0.478703 -0.23015,-0.703681 -0.681968,-0.530839 -0.213248,0.08158 -0.42365,0.156359 -0.631199,0.224341 -0.459665,0.150564 -1.224535,0.331542 -1.704214,0.393277 -0.20574,0.02648 -0.416367,0.04722 -0.631885,0.06225 -0.482539,0.03364 -1.273107,0.04527 -1.745847,-0.05357 -0.267219,-0.05587 -0.509204,-0.139885 -0.725927,-0.252081 -0.426924,-0.221014 -0.949575,-0.846738 -1.103372,-1.302596 -0.07937,-0.23525 -0.129301,-0.492005 -0.149835,-0.770242 -0.03555,-0.481774 0.41588,-0.874381 0.899691,-0.874381 h 6.806617 a 1.0136793,1.0136793 139.16657 0 0 1.002977,-0.866768 l 0.0025,-0.01726 c 0.07012,-0.478703 0.189775,-1.255036 0.215441,-1.737994 0.06019,-1.132515 -0.119932,-2.08641 -0.540457,-2.861885 -0.230098,-0.424314 -0.7544,-1.0223854 -1.140686,-1.3121772 -0.69099,-0.5183812 -1.559975,-0.8321756 -2.606864,-0.9412505 -0.480953,-0.05011 -1.267965,-0.049161 -1.74897,8.246e-4 z m 1.386242,2.6493991 c 0.09672,0.02999 0.187674,0.06578 0.272848,0.107382 0.428694,0.20937 0.86504,0.918093 0.959122,1.389849 0.01985,0.09954 0.03469,0.202474 0.04452,0.308794 0.04443,0.480802 -0.414231,0.874 -0.898042,0.874 l -3.329827,0 c -0.483811,0 -0.797869,-0.387513 -0.619535,-0.836768 0.08803,-0.221761 0.187644,-0.424054 0.29886,-0.606871 0.250454,-0.411698 0.853819,-0.944739 1.297394,-1.133279 0.08075,-0.03432 0.162933,-0.06462 0.246537,-0.09088 0.459781,-0.144435 1.267727,-0.154974 1.728128,-0.01223 z"
           style="font-weight:bold;font-size:24.3155px;line-height:0.5;font-family:Sans;-inkscape-font-specification:'Sans Bold';letter-spacing:-0.027355px;opacity:1;fill:#ffffff;stroke-width:1.72315;fill-opacity:1"
           id="path9"
           inkscape:path-effect="#path-effect19"
           inkscape:original-d="m 63.178181,8.2568604 c -1.248196,0 -2.3803,0.2595163 -3.396481,0.778247 -1.01618,0.5187307 -1.867787,1.2967636 -2.55469,2.3342246 -0.668318,1.021251 -1.116564,2.309722 -1.344507,3.865914 -0.223194,1.523771 -0.116622,2.788526 0.319736,3.793567 0.436359,1.00504 1.128728,1.75884 2.076372,2.26136 0.950019,0.48631 2.089316,0.729155 3.418563,0.729155 1.021251,0 1.900487,-0.08078 2.637484,-0.242879 0.750835,-0.145893 1.474477,-0.381177 2.170379,-0.705384 l 0.409575,-2.796211 c -0.797912,0.356627 -1.558598,0.624221 -2.28176,0.802535 -0.720789,0.162103 -1.510652,0.242879 -2.3698,0.242879 -1.021251,0 -1.781364,-0.29131 -2.279458,-0.874882 -0.481882,-0.583572 -0.663682,-1.386354 -0.546515,-2.407605 h 8.558651 l 0.256448,-1.750798 c 0.282555,-1.929029 -0.03492,-3.411879 -0.952836,-4.4493406 -0.915546,-1.0536717 -2.289393,-1.580782 -4.121161,-1.580782 z m -0.353267,2.5776206 c 0.859148,0 1.452071,0.267594 1.778974,0.802535 0.329277,0.51873 0.443005,1.18316 0.340496,1.993677 h -5.081861 c 0.22114,-0.95641 0.591533,-1.661744 1.111905,-2.115634 0.536583,-0.453889 1.153442,-0.680578 1.850486,-0.680578 z"
           sodipodi:nodetypes="sscsscsccccscccscssccccs" />
        <path
           d="m 54.020022,8.2921305 c -0.483117,0.060028 -0.944256,0.1966688 -1.383439,0.4098504 -0.287628,0.1396156 -0.723719,0.4234473 -0.978172,0.6172153 -0.382866,0.2915556 -0.725674,0.612688 -1.02851,0.9633698 -0.209021,0.242044 -0.434816,0.454763 -0.529,0.454763 L 49.947145,9.0770375 A 0.63537067,0.63537067 42.354532 0 0 49.314482,8.5002563 H 47.725339 A 0.67027567,0.67027567 139.16657 0 0 47.06214,9.0733899 L 45.285409,21.203315 a 0.50058455,0.50058455 49.166572 0 0 0.495299,0.573134 h 2.464537 a 0.67027564,0.67027564 139.16657 0 0 0.663199,-0.573134 l 0.822241,-5.613527 c 0.04636,-0.316533 0.117406,-0.831208 0.195715,-1.141243 0.08974,-0.355279 0.211074,-0.671417 0.36403,-0.948454 0.154372,-0.279601 0.495407,-0.676572 0.740155,-0.882113 0.186081,-0.156272 0.384987,-0.291824 0.596714,-0.406613 0.280947,-0.152318 0.771257,-0.329641 1.080702,-0.410197 0.230656,-0.06005 0.462429,-0.103592 0.695319,-0.130682 0.317591,-0.03694 0.827649,-0.03247 1.129982,0.01511 0.499891,0.07286 0.499891,0.07286 0.499891,0.07286 L 55.672335,8.9191217 C 55.74259,8.6070208 55.544945,8.3025696 55.226789,8.281149 54.620343,8.2568424 54.337288,8.2527098 54.020022,8.2921305 Z"
           style="font-weight:bold;font-size:24.3155px;line-height:0.5;font-family:Sans;-inkscape-font-specification:'Sans Bold';letter-spacing:-0.027355px;opacity:1;fill:#ffffff;stroke-width:1.72315;fill-opacity:1"
           id="path8"
           inkscape:path-effect="#path-effect18"
           inkscape:original-d="m 54.597826,8.2568604 c -0.891568,0 -1.713324,0.2433612 -2.465391,0.7296712 -0.752066,0.48631 -1.372228,1.0699634 -1.861001,1.7507974 H 50.100901 L 49.893731,8.5002563 H 47.14609 L 45.201459,21.776449 h 3.623035 l 0.990141,-6.759795 c 0.12347,-0.842937 0.390937,-1.507366 0.802587,-1.993676 0.427861,-0.48631 0.940935,-0.835197 1.539165,-1.045931 0.600603,-0.226945 1.208899,-0.340031 1.824892,-0.340031 0.162103,0 0.346036,0.01616 0.552023,0.04858 0.22457,0.01621 0.391166,0.04044 0.499891,0.07286 l 0.76635,-3.404443 C 55.658399,8.321592 55.467569,8.29736 55.226789,8.281149 54.986007,8.264939 54.77614,8.256861 54.597826,8.2568604 Z"
           sodipodi:nodetypes="ssccccccsccscccss" />
        <path
           d="m 40.552347,4.1817709 c -1.371403,0.056938 -2.606949,0.3586568 -3.706474,0.9048964 -0.239411,0.1189383 -0.615097,0.3360439 -0.8388,0.4824174 -0.995516,0.6513846 -1.840542,1.485023 -2.535092,2.5008832 -0.150889,0.2206922 -0.378343,0.5900376 -0.508237,0.8237053 -0.621435,1.1178998 -1.056709,2.3674268 -1.305882,3.7486858 -0.04746,0.263111 -0.110211,0.692161 -0.141486,0.957684 -0.163171,1.385328 -0.13204,2.6324 0.09327,3.741369 0.05323,0.261977 0.163869,0.681682 0.25166,0.934163 0.33013,0.949426 0.854741,1.733149 1.574112,2.351095 0.202752,0.174166 0.558642,0.423599 0.792276,0.553392 0.901289,0.500701 2.024641,0.777291 3.369884,0.82997 0.26714,0.01046 0.70078,0.01013 0.968027,0.0024 0.555194,-0.01598 1.08033,-0.05989 1.575301,-0.131847 0.264561,-0.03846 0.690617,-0.119522 0.951101,-0.179723 0.470189,-0.108667 0.947739,-0.247204 1.432624,-0.415497 0.252576,-0.08766 0.486239,-0.380218 0.524989,-0.644762 l 0.311942,-2.129667 c 0.03875,-0.264544 -0.135184,-0.409583 -0.390014,-0.328678 -0.517496,0.164299 -1.010177,0.304261 -1.478077,0.420001 -0.259535,0.0642 -0.682698,0.159069 -0.945995,0.205404 -0.39873,0.07017 -0.796341,0.115467 -1.192757,0.135812 -0.266989,0.0137 -0.701059,0.01504 -0.967553,-0.0057 -1.057743,-0.08231 -1.844025,-0.444816 -2.359024,-1.087209 -0.166976,-0.20828 -0.370031,-0.594614 -0.463118,-0.845071 -0.32666,-0.878894 -0.412795,-2.005841 -0.258009,-3.381056 0.0299,-0.265678 0.09271,-0.694757 0.141084,-0.957697 0.258147,-1.403203 0.716575,-2.560054 1.374963,-3.4702883 0.156652,-0.2165751 0.438122,-0.5475792 0.630278,-0.7333401 0.734413,-0.7099718 1.617938,-1.1118602 2.650652,-1.2058815 0.266217,-0.024237 0.700833,-0.023872 0.966969,7.568e-4 0.311037,0.028784 0.619969,0.085438 0.926827,0.1699283 0.257698,0.070955 0.664964,0.2209329 0.913683,0.3190085 0.325306,0.1282762 0.646789,0.2674903 0.964479,0.4177535 0.241686,0.1143146 0.538144,0.023264 0.666083,-0.2115057 L 45.708422,5.8128733 C 45.836361,5.5781034 45.746909,5.2891901 45.503035,5.1796497 45.032533,4.9683148 44.542009,4.7880365 44.031338,4.6388343 43.774715,4.5638567 43.35525,4.4536579 43.094222,4.3959109 42.576019,4.2812693 42.051335,4.2105906 41.520245,4.1839379 c -0.267011,-0.0134 -0.70078,-0.013257 -0.967898,-0.00217 z"
           style="font-weight:bold;font-size:24.3155px;line-height:0.5;font-family:Sans;-inkscape-font-specification:'Sans Bold';letter-spacing:-0.027355px;opacity:1;fill:#ffffff;stroke-width:1.72315;fill-opacity:1"
           id="path7"
           inkscape:path-effect="#path-effect17"
           inkscape:original-d="m 41.036322,4.1718384 c -1.750716,0 -3.289919,0.381197 -4.617291,1.1430827 -1.311163,0.7618856 -2.381372,1.8155896 -3.210651,3.1610473 -0.829279,1.3454577 -1.372079,2.8934446 -1.628515,4.6441606 -0.261186,1.783137 -0.214622,3.34728 0.139454,4.692737 0.356449,1.329248 1.055205,2.366796 2.096916,3.112472 1.060295,0.729465 2.48219,1.09399 4.265327,1.09399 0.923989,0 1.76973,-0.0727 2.536775,-0.218592 0.767045,-0.145893 1.554125,-0.373099 2.361124,-0.681095 l 0.452266,-3.087667 c -0.869466,0.291786 -1.672625,0.518476 -2.409624,0.680579 -0.720789,0.162103 -1.43803,0.243396 -2.151284,0.243396 -1.523772,0 -2.56036,-0.502878 -3.110191,-1.507918 -0.531246,-1.021251 -0.661954,-2.455636 -0.391271,-4.303614 0.268308,-1.831767 0.852787,-3.274746 1.7528,-4.3284177 0.900012,-1.0536716 2.055082,-1.5802653 3.465381,-1.5802653 0.632203,0 1.255759,0.1136031 1.870931,0.3405477 0.631381,0.2269447 1.248613,0.4940219 1.851913,0.8020183 L 45.940076,5.3877848 C 45.200381,5.0149472 44.40855,4.7231204 43.56406,4.5123861 42.738153,4.2854414 41.895469,4.1718384 41.036322,4.1718384 Z"
           sodipodi:nodetypes="scssccsscccscsssccccs" />
      </g>
    </g>
  </g>
</svg>
