<?xml version="1.0" encoding="UTF-8" standalone="no"?>
<!-- Created with Inkscape (http://www.inkscape.org/) -->

<svg
   width="25mm"
   height="25mm"
   viewBox="0 0 25 25"
   version="1.1"
   id="svg1"
   inkscape:version="1.4.2 (ebf0e94, 2025-05-08)"
   sodipodi:docname="logo_white.svg"
   xmlns:inkscape="http://www.inkscape.org/namespaces/inkscape"
   xmlns:sodipodi="http://sodipodi.sourceforge.net/DTD/sodipodi-0.dtd"
   xmlns="http://www.w3.org/2000/svg"
   xmlns:svg="http://www.w3.org/2000/svg">
  <sodipodi:namedview
     id="namedview1"
     pagecolor="#505050"
     bordercolor="#ffffff"
     borderopacity="1"
     inkscape:showpageshadow="0"
     inkscape:pageopacity="0"
     inkscape:pagecheckerboard="1"
     inkscape:deskcolor="#505050"
     inkscape:document-units="mm"
     inkscape:zoom="5.7513468"
     inkscape:cx="23.385827"
     inkscape:cy="49.11893"
     inkscape:window-width="1920"
     inkscape:window-height="1019"
     inkscape:window-x="0"
     inkscape:window-y="25"
     inkscape:window-maximized="1"
     inkscape:current-layer="layer1" />
  <defs
     id="defs1">
    <inkscape:path-effect
       effect="fillet_chamfer"
       id="path-effect5"
       is_visible="true"
       lpeversion="1"
       nodesatellites_param="F,0,0,1,0,1.4432733,0,1 @ F,0,0,1,0,0,0,1 @ F,0,0,1,0,0,0,1 @ F,0,0,1,0,0,0,1 @ F,0,0,1,0,0,0,1 @ F,0,0,1,0,0,0,1 @ F,0,0,1,0,0,0,1 @ F,0,0,1,0,0,0,1 @ F,0,0,1,0,0,0,1 @ F,0,1,1,0,1.4283192,0,1 @ F,0,0,1,0,0,0,1 @ F,0,0,1,0,0,0,1 @ F,0,0,1,0,0,0,1 @ F,0,0,1,0,0,0,1 @ F,0,0,1,0,0,0,1 @ F,0,0,1,0,0,0,1 @ F,0,0,1,0,0,0,1 @ F,0,0,1,0,0,0,1 @ F,0,0,1,0,0,0,1 @ F,0,0,1,0,0,0,1 @ F,0,0,1,0,0,0,1 @ F,0,0,1,0,0,0,1 @ F,0,0,1,0,0,0,1 @ F,0,0,1,0,0,0,1 @ F,0,0,1,0,0,0,1 @ F,0,0,1,0,0,0,1 @ F,0,0,1,0,1.4283192,0,1 @ F,0,0,1,0,0,0,1 @ F,0,0,1,0,0,0,1 @ F,0,0,1,0,0,0,1 @ F,0,0,1,0,0,0,1 @ F,0,0,1,0,0,0,1 @ F,0,0,1,0,0,0,1 @ F,0,0,1,0,0,0,1 @ F,0,0,1,0,0,0,1 @ F,0,0,1,0,1.4432733,0,1 @ F,0,0,1,0,0,0,1 @ F,0,0,1,0,2.8315604,0,1 @ F,0,0,1,0,2.1542003,0,1 @ F,0,0,1,0,0,0,1 @ F,0,0,1,0,0,0,1"
       radius="0"
       unit="px"
       method="auto"
       mode="F"
       chamfer_steps="1"
       flexible="false"
       use_knot_distance="true"
       apply_no_radius="true"
       apply_with_radius="true"
       only_selected="false"
       hide_knots="false" />
    <inkscape:path-effect
       effect="fillet_chamfer"
       id="path-effect4"
       is_visible="true"
       lpeversion="1"
       nodesatellites_param="F,0,0,1,0,0,0,1 @ F,0,0,1,0,0,0,1 @ F,0,0,1,0,0,0,1 @ F,0,0,1,0,3.4834047,0,1 @ F,0,0,1,0,3.829337,0,1 @ F,0,0,1,0,1.5139988,0,1 @ F,0,0,1,0,0,0,1 @ F,0,0,1,0,1.6248709,0,1 @ F,0,0,1,0,1.3290244,0,1 @ F,0,0,1,0,1.2013982,0,1 @ F,0,0,1,0,2.3883091,0,1 @ F,0,0,1,0,0,0,1 @ F,0,0,1,0,6.1032213,0,1"
       radius="0"
       unit="px"
       method="auto"
       mode="F"
       chamfer_steps="1"
       flexible="false"
       use_knot_distance="true"
       apply_no_radius="true"
       apply_with_radius="true"
       only_selected="false"
       hide_knots="false" />
    <inkscape:path-effect
       effect="fillet_chamfer"
       id="path-effect2"
       is_visible="true"
       lpeversion="1"
       nodesatellites_param="F,0,0,1,0,0,0,1 @ F,0,0,1,0,0,0,1 @ F,0,0,1,0,0,0,1 @ F,0,0,1,0,3.4834047,0,1 @ F,0,0,1,0,3.829337,0,1 @ F,0,0,1,0,1.5139988,0,1 @ F,0,0,1,0,0,0,1 @ F,0,0,1,0,1.6248709,0,1 @ F,0,0,1,0,1.3290244,0,1 @ F,0,0,1,0,1.2013982,0,1 @ F,0,0,1,0,2.3883091,0,1 @ F,0,0,1,0,0,0,1 @ F,0,0,1,0,6.1032213,0,1"
       radius="0"
       unit="px"
       method="auto"
       mode="F"
       chamfer_steps="1"
       flexible="false"
       use_knot_distance="true"
       apply_no_radius="true"
       apply_with_radius="true"
       only_selected="false"
       hide_knots="false" />
    <inkscape:path-effect
       effect="fillet_chamfer"
       id="path-effect1"
       is_visible="true"
       lpeversion="1"
       nodesatellites_param="F,0,0,1,0,0,0,1 @ F,0,0,1,0,0,0,1 @ F,0,0,1,0,6.1539861,0,1 @ F,0,0,1,0,0,0,1"
       radius="0"
       unit="px"
       method="auto"
       mode="F"
       chamfer_steps="1"
       flexible="false"
       use_knot_distance="true"
       apply_no_radius="true"
       apply_with_radius="true"
       only_selected="false"
       hide_knots="false" />
  </defs>
  <g
     inkscape:label="Layer 1"
     inkscape:groupmode="layer"
     id="layer1">
    <path
       d="m 17.497555,25.200329 0.493595,8.007463 c 0.09758,1.58316 0.392348,3.147955 0.877466,4.658113 l 3.175,5.650819 c 0.20292,0.631723 0.797866,1.467142 1.328084,1.866036 0.979471,0.736875 2.49477,1.878748 3.504179,2.648934 0.5832,0.444985 1.57094,1.098723 2.218469,1.444356 l 4.013709,2.142505 c 0.941957,0.502737 1.749665,1.223969 2.355411,2.10323 l 2.66702,3.871519 a 0.40073114,0.40073114 129.76567 0 1 -0.493596,0.593154 l -8.931151,-3.9939 c -0.902517,-0.403485 -1.901545,-0.540645 -2.87941,-0.395325 l -6.89467,1.024227 c -1.187972,0.176776 -1.453601,1.771611 -0.387057,2.323889 l 4.179074,2.164726 c 1.308403,0.677628 2.502839,1.546585 3.545704,2.574454 0.09429,0.09293 0.187339,0.187166 0.279123,0.282673 0.471025,0.490139 0.908686,1.01386 1.309226,1.567926 l 2.014864,2.78691 c 3.737536,5.057122 11.550628,13.871189 13.12478,13.644128 1.574153,0.227061 9.387246,-8.587006 13.124781,-13.644128 l 2.014864,-2.78691 c 1.341828,-1.856147 3.100258,-3.371742 5.134053,-4.425053 l 4.179073,-2.164726 c 1.066611,-0.552454 0.800596,-2.147482 -0.387573,-2.323889 L 60.16842,53.797233 c -0.503794,-0.07487 -1.013206,-0.07477 -1.512143,-0.0019 -0.778087,0.113646 -1.951036,0.658274 -2.671151,0.980301 l -8.931151,3.9939 3.477308,-5.047754 c 0.605746,-0.879261 1.413454,-1.600493 2.355411,-2.10323 l 4.013709,-2.142505 c 0.647529,-0.345633 1.635269,-0.99937 2.218469,-1.444356 1.009409,-0.770186 2.524708,-1.912058 3.504179,-2.648934 0.530218,-0.398893 1.125164,-1.234313 1.328084,-1.866036 l 3.175,-5.650819 c 0.337841,-1.051688 0.583363,-2.129875 0.734261,-3.222309 0.10904,-0.789412 0.182961,-2.080755 0.232003,-2.876343 l 0.493595,-8.007463 -5.868564,5.360656 c -1.154629,1.054699 -3.018393,2.791957 -4.342622,3.619764 -1.884364,1.177961 -4.001736,1.941423 -6.209537,2.235529 -1.178378,0.156975 -3.09143,0.344317 -4.269556,0.508321 -3.845605,0.535335 -7.661541,0.31926 -11.918066,-0.371992 -3.924072,0.02214 -7.712362,-1.43535 -10.609688,-4.081921 l -6.893585,-6.296964 a 0.58403493,0.58403493 154.44143 0 0 -0.976821,0.467146 z"
       style="opacity:1;fill:#ffffff;fill-opacity:1"
       id="path4"
       sodipodi:nodetypes="ccccsscccccccccssccccccccccccccssccccsccsc"
       inkscape:path-effect="#path-effect5"
       inkscape:original-d="m 17.408757,23.75979 0.582393,9.448002 c 0.09758,1.58316 0.392348,3.147955 0.877466,4.658113 l 3.175,5.650819 c 0.20292,0.631723 0.797866,1.467142 1.328084,1.866036 0.979471,0.736875 2.49477,1.878748 3.504179,2.648934 0.5832,0.444985 1.57094,1.098723 2.218469,1.444356 l 4.013709,2.142505 c 0.941957,0.502737 1.749665,1.223969 2.355411,2.10323 l 3.477308,5.047754 -10.235035,-4.576981 c -0.902517,-0.403485 -1.901545,-0.540645 -2.87941,-0.395325 l -6.89467,1.024227 c -1.187972,0.176776 -1.453601,1.771611 -0.387057,2.323889 l 4.179074,2.164726 c 1.308403,0.677628 2.502839,1.546585 3.545704,2.574454 0.09429,0.09293 0.187339,0.187166 0.279123,0.282673 0.471025,0.490139 0.908686,1.01386 1.309226,1.567926 l 2.014864,2.78691 c 3.737536,5.057122 11.550628,13.871189 13.12478,13.644128 1.574153,0.227061 9.387246,-8.587006 13.124781,-13.644128 l 2.014864,-2.78691 c 1.341828,-1.856147 3.100258,-3.371742 5.134053,-4.425053 l 4.179073,-2.164726 c 1.066611,-0.552454 0.800596,-2.147482 -0.387573,-2.323889 L 60.16842,53.797233 c -0.977865,-0.14532 -1.976893,-0.0082 -2.87941,0.395325 l -10.235035,4.576981 3.477308,-5.047754 c 0.605746,-0.879261 1.413454,-1.600493 2.355411,-2.10323 l 4.013709,-2.142505 c 0.647529,-0.345633 1.635269,-0.99937 2.218469,-1.444356 1.009409,-0.770186 2.524708,-1.912058 3.504179,-2.648934 0.530218,-0.398893 1.125164,-1.234313 1.328084,-1.866036 l 3.175,-5.650819 c 0.485118,-1.510158 0.779884,-3.074953 0.877466,-4.658113 l 0.582393,-9.448002 -7.959204,7.270357 c -2.897326,2.646571 -6.685616,4.104061 -10.609688,4.081921 -4.582357,0.970593 -9.002413,0.818006 -14.039453,0 -3.924072,0.02214 -7.712362,-1.43535 -10.609688,-4.081921 z"
       transform="matrix(0.4893369,0,0,0.44317851,-8.5616579,-10.529828)" />
  </g>
</svg>
